<svg xmlns="http://www.w3.org/2000/svg" width="14" height="14" viewBox="0 0 14 14">
  <g id="check-active" transform="translate(-97 -6289)">
    <rect id="사각형_8215" data-name="사각형 8215" width="14" height="14" rx="3" transform="translate(97 6289)" fill="#f67640"/>
    <path id="패스_17550" data-name="패스 17550" d="M634.618,1178.77l-4.8,4.585-1.659-1.585a.625.625,0,0,0-.436-.173h-.007a.622.622,0,0,0-.438.182.6.6,0,0,0,.007.86l2.1,2a.652.652,0,0,0,.872,0l5.236-5a.593.593,0,0,0,.008-.845A.635.635,0,0,0,634.618,1178.77Z" transform="translate(-527.387 5114.296)" fill="#fff"/>
  </g>
</svg>
