<svg id="logo" xmlns="http://www.w3.org/2000/svg" xmlns:xlink="http://www.w3.org/1999/xlink" width="67.08" height="35.649" viewBox="0 0 67.08 35.649">
  <defs>
    <clipPath id="clip-path">
      <rect id="사각형_8178" data-name="사각형 8178" width="67.08" height="35.649" fill="#fff"/>
    </clipPath>
  </defs>
  <g id="그룹_93797" data-name="그룹 93797" clip-path="url(#clip-path)">
    <path id="패스_40656" data-name="패스 40656" d="M363.881,35.65a17.824,17.824,0,1,1,17.824-17.824A17.845,17.845,0,0,1,363.881,35.65m0-34.744A16.919,16.919,0,1,0,380.8,17.825,16.938,16.938,0,0,0,363.881.906" transform="translate(-314.626 -0.001)" fill="#fff"/>
    <path id="패스_40657" data-name="패스 40657" d="M415.429,163.835a3.3,3.3,0,0,1-2.594-1.184l-.29-.351.847-.456.2.251a2.332,2.332,0,0,0,1.839.832c.8,0,1.375-.444,1.375-1.056,0-.634-.612-.918-1.619-1.309-.966-.375-2.06-.8-2.06-1.953,0-1.046.944-1.805,2.244-1.805a3.107,3.107,0,0,1,2.007.7l.329.271-.694.644-.258-.222a2.084,2.084,0,0,0-1.383-.484c-.638,0-1.283.309-1.283.9,0,.505.559.759,1.48,1.118.98.381,2.2.856,2.2,2.144a2.125,2.125,0,0,1-2.335,1.962" transform="translate(-375.075 -142.564)" fill="#fff"/>
    <path id="패스_40658" data-name="패스 40658" d="M481,164.748h-.946v-6.827h2.879a2.4,2.4,0,0,1,1.608.5,1.993,1.993,0,0,1,.652,1.453,2.238,2.238,0,0,1-.652,1.56,2.4,2.4,0,0,1-1.608.5H481Zm0-3.725h1.913a1.448,1.448,0,0,0,.994-.273,1.392,1.392,0,0,0,.34-.88,1.111,1.111,0,0,0-.346-.777,1.448,1.448,0,0,0-.988-.269H481Z" transform="translate(-436.455 -143.578)" fill="#fff"/>
    <path id="패스_40659" data-name="패스 40659" d="M622.5,164.858h-.945v-5.916h-2.193v-.9h5.331v.9H622.5Z" transform="translate(-563.108 -143.686)" fill="#fff"/>
    <path id="패스_40660" data-name="패스 40660" d="M547.072,164.857a3.408,3.408,0,1,1,3.365-3.408,3.312,3.312,0,0,1-3.365,3.408m0-5.93a2.522,2.522,0,1,0,2.457,2.521,2.435,2.435,0,0,0-2.457-2.521" transform="translate(-494.324 -143.687)" fill="#fff"/>
    <path id="패스_40661" data-name="패스 40661" d="M17.783.647A17.783,17.783,0,1,0,35.566,18.43,17.783,17.783,0,0,0,17.783.647M12.365,15.929H8.985v2.019h2.684v.9H8.985v2.984h-.94v-6.8h4.321Zm2.255,5.9h-.94v-6.8h.94Zm4.63,0h-.571l-3.18-6.8h1.017l2.448,5.239,2.448-5.239h1.018Zm8.271,0H23.1v-6.8h4.321v.9h-3.38v2.019h2.684v.9H24.042v2.086h3.48Z" transform="translate(0 -0.588)" fill="#fff"/>
  </g>
</svg>
