<svg xmlns="http://www.w3.org/2000/svg" width="18" height="18" viewBox="0 0 18 18">
  <g id="flowIcon" transform="translate(-186 -3171)">
    <circle id="타원_1312" data-name="타원 1312" cx="9" cy="9" r="9" transform="translate(186 3171)" fill="#f67640"/>
    <circle id="타원_1311" data-name="타원 1311" cx="7" cy="7" r="7" transform="translate(188 3173)" fill="#f67640"/>
    <path id="패스_32792" data-name="패스 32792" d="M8.088,0a8.088,8.088,0,1,0,8.088,8.088A8.088,8.088,0,0,0,8.088,0m2.188,8.375L7.639,11.533a.577.577,0,0,1-.387.161.562.562,0,0,1-.362-.133.356.356,0,0,1-.052-.052.448.448,0,0,1,.038-.63L9.2,8.044l-2.453-2.8A.449.449,0,0,1,6.8,4.617a.675.675,0,0,1,.368-.133.531.531,0,0,1,.359.133L10.288,7.71a.464.464,0,0,1,.142.356.446.446,0,0,1-.153.309" transform="translate(203.088 3171.912) rotate(90)" fill="#f8f8f8"/>
  </g>
</svg>
