<svg xmlns="http://www.w3.org/2000/svg" width="24.6" height="24.6" viewBox="0 0 24.6 24.6">
  <g id="icon4" transform="translate(20652.364 7139.364)">
    <path id="패스_42024" data-name="패스 42024" d="M51.936,63.936a12,12,0,1,1,10.394-18l-.646.374a11.257,11.257,0,1,0,1.506,5.628h.746a12.014,12.014,0,0,1-12,12" transform="translate(-20692 -7179)" fill="#fff" stroke="#fff" stroke-width="0.6"/>
    <g id="그룹_94512" data-name="그룹 94512">
      <rect id="사각형_8277" data-name="사각형 8277" width="0.746" height="4.922" transform="translate(-20639.58 -7126.053) rotate(-45.002)" fill="#fff" stroke="#fff" stroke-width="0.6"/>
      <rect id="사각형_8278" data-name="사각형 8278" width="0.746" height="6.343" transform="translate(-20640.438 -7134.464)" fill="#fff" stroke="#fff" stroke-width="0.6"/>
      <path id="패스_42025" data-name="패스 42025" d="M112.232,113.662a1.43,1.43,0,1,1,1.43-1.43,1.432,1.432,0,0,1-1.43,1.43m0-2.114a.684.684,0,1,0,.684.684.685.685,0,0,0-.684-.684" transform="translate(-20752.297 -7239.296)" fill="#fff" stroke="#fff" stroke-width="0.6"/>
    </g>
  </g>
</svg>
