<svg xmlns="http://www.w3.org/2000/svg" width="24.6" height="30.755" viewBox="0 0 24.6 30.755">
  <g id="icon5" transform="translate(20777.329 7127.365)">
    <path id="패스_42171" data-name="패스 42171" d="M101.826,45.259H89.319V39.935h12.507ZM90.332,44.245h10.479v-3.3H90.332Z" transform="translate(-20860.602 -7167)" fill="#fff" stroke="#fff" stroke-width="0.6"/>
    <path id="패스_42172" data-name="패스 42172" d="M84.971,78.566h-24v-28h6.253V51.5h-5.24V77.634H83.958V51.5h-5.24v-.932h6.253Z" transform="translate(-20838 -7175.476)" fill="#fff" stroke="#fff" stroke-width="0.6"/>
    <g id="그룹_94499" data-name="그룹 94499" transform="translate(0.874 -0.248)">
      <path id="패스_42173" data-name="패스 42173" d="M96.178,113.834,93.637,105.7l.82-.256,1.775,5.681,2-5.608,2,5.608,1.775-5.681.82.256-2.541,8.132-2.057-5.761Z" transform="translate(-20864.092 -7219.23)" fill="#fff" stroke="#fff" stroke-width="0.3"/>
      <rect id="사각형_8286" data-name="사각형 8286" width="9.745" height="0.859" transform="translate(-20770.73 -7110.427)" fill="#fff" stroke="#fff" stroke-width="0.3"/>
    </g>
    <rect id="사각형_8297" data-name="사각형 8297" width="10" height="1" transform="translate(-20770.031 -7114.755)" fill="#f67640"/>
    <rect id="사각형_8298" data-name="사각형 8298" width="10" height="2" transform="translate(-20770.031 -7106.755)" fill="#f67640"/>
  </g>
</svg>
