<svg xmlns="http://www.w3.org/2000/svg" width="24.6" height="30.91" viewBox="0 0 24.6 30.91">
  <g id="icon2" transform="translate(20748.104 7258.527)">
    <path id="패스_41727" data-name="패스 41727" d="M111.961,113.3v1.44h-4.078v2.4h3.4v1.44h-3.4V121.7h-1.669v-8.4Z" transform="translate(-20844.891 -7357.204)" fill="#f67640"/>
    <path id="패스_41728" data-name="패스 41728" d="M85.2,80.033h-24v-26H69.6v.886H62.21V79.147H84.182V54.919H73.914v-.886H85.2Z" transform="translate(-20809 -7307.95)" fill="#f67640" stroke="#f67640" stroke-width="0.6"/>
    <path id="패스_41729" data-name="패스 41729" d="M122.652,37.816l-.907-.453,1.788-3.576h-3.177l-1.3,2.593-.907-.453,1.577-3.153h5.443Z" transform="translate(-20854.412 -7291)" fill="#f67640" stroke="#f67640" stroke-width="0.6"/>
    <path id="패스_41730" data-name="패스 41730" d="M97.539,40.97H92.1l-4.1-8.2h5.443Zm-4.817-1.014H95.9l-3.084-6.17H89.638Z" transform="translate(-20830.369 -7291)" fill="#f67640" stroke="#f67640" stroke-width="0.6"/>
    <rect id="사각형_8251" data-name="사각형 8251" width="8.62" height="1.014" transform="translate(-20740.115 -7251.043)" fill="#f67640" stroke="#f67640" stroke-width="0.6"/>
  </g>
</svg>
