<svg xmlns="http://www.w3.org/2000/svg" width="24.601" height="24.6" viewBox="0 0 24.601 24.6">
  <g id="icon3" transform="translate(20446.451 7243.277)">
    <g id="그룹_94496" data-name="그룹 94496">
      <path id="패스_41876" data-name="패스 41876" d="M87.712,71.023H75.369v-24H87.712Zm-11.657-.818H87.026V47.841H76.054Z" transform="translate(-20515.691 -7290)" fill="#f67640" stroke="#f67640" stroke-width="0.6"/>
      <path id="패스_41877" data-name="패스 41877" d="M39.363,107.4H32.849V89.543h6.514Zm-5.829-.857h5.143V90.4H33.535Z" transform="translate(-20479 -7326.38)" fill="#f67640" stroke="#f67640" stroke-width="0.6"/>
      <path id="패스_41878" data-name="패스 41878" d="M166.922,107.4h-6.514V89.543h6.514Zm-5.829-.857h5.143V90.4h-5.143Z" transform="translate(-20589.072 -7326.38)" fill="#f67640" stroke="#f67640" stroke-width="0.6"/>
    </g>
    <rect id="사각형_8259" data-name="사각형 8259" width="5.829" height="0.685" transform="translate(-20437.064 -7240.063)" fill="#f67640" stroke="#f67640" stroke-width="0.6"/>
    <rect id="사각형_8260" data-name="사각형 8260" width="5.829" height="0.685" transform="translate(-20437.064 -7236.583)" fill="#f67640" stroke="#f67640" stroke-width="0.6"/>
    <rect id="사각형_8261" data-name="사각형 8261" width="5.829" height="0.685" transform="translate(-20437.064 -7233.386)" fill="#f67640" stroke="#f67640" stroke-width="0.6"/>
    <rect id="사각형_8262" data-name="사각형 8262" width="5.829" height="0.685" transform="translate(-20437.064 -7230.188)" fill="#f67640" stroke="#f67640" stroke-width="0.6"/>
    <rect id="사각형_8263" data-name="사각형 8263" width="5.829" height="0.685" transform="translate(-20437.064 -7226.991)" fill="#f67640" stroke="#f67640" stroke-width="0.6"/>
    <rect id="사각형_8264" data-name="사각형 8264" width="1.943" height="0.685" transform="translate(-20443.865 -7233.386)" fill="#f67640" stroke="#f67640" stroke-width="0.6"/>
    <rect id="사각형_8265" data-name="사각형 8265" width="1.943" height="0.685" transform="translate(-20443.865 -7230.188)" fill="#f67640" stroke="#f67640" stroke-width="0.6"/>
    <rect id="사각형_8266" data-name="사각형 8266" width="1.943" height="0.685" transform="translate(-20443.865 -7226.991)" fill="#f67640" stroke="#f67640" stroke-width="0.6"/>
    <rect id="사각형_8267" data-name="사각형 8267" width="1.943" height="0.685" transform="translate(-20426.379 -7233.386)" fill="#f67640" stroke="#f67640" stroke-width="0.6"/>
    <rect id="사각형_8268" data-name="사각형 8268" width="1.943" height="0.685" transform="translate(-20426.379 -7230.188)" fill="#f67640" stroke="#f67640" stroke-width="0.6"/>
    <rect id="사각형_8269" data-name="사각형 8269" width="1.943" height="0.685" transform="translate(-20426.379 -7226.991)" fill="#f67640" stroke="#f67640" stroke-width="0.6"/>
  </g>
</svg>
