<svg xmlns="http://www.w3.org/2000/svg" width="24.697" height="20.813" viewBox="0 0 24.697 20.813">
  <path id="icon1" d="M20731.715,7373.115v-2.628h4.572v.972h1.6a3.547,3.547,0,0,0,3.543-3.543v-6.8a7.429,7.429,0,0,0-14.857,0v7.143h-.342a4.228,4.228,0,0,1-.238-8.45,8.115,8.115,0,0,1,16.018,0,8.771,8.771,0,0,1-4.123,12.336h-1.6v.971Zm.686-.685h3.2v-1.257h-3.2Zm9.715-11.314v6.441a3.543,3.543,0,0,0-.023-7.055C20742.107,7360.7,20742.115,7360.909,20742.115,7361.115Zm-19.428,2.915a3.548,3.548,0,0,0,3.2,3.527v-6.441c0-.206.006-.411.021-.614A3.548,3.548,0,0,0,20722.688,7364.03Z" transform="translate(-20721.652 -7352.652)" fill="#f67640" stroke="#f67640" stroke-miterlimit="10" stroke-width="0.7"/>
</svg>
