<svg xmlns="http://www.w3.org/2000/svg" width="100.002" height="100.313" viewBox="0 0 100.002 100.313">
  <g id="_30sale" data-name="30sale" transform="translate(20824 8723.684)">
    <path id="패스_42465" data-name="패스 42465" d="M39.952,28.119c-1.338,1.336-1.538,2.389-.922,3s1.666.413,3-.925,1.5-2.374.9-2.978-1.631-.449-2.979.9" transform="translate(-20812.924 -8715.991)" fill="#ff4747"/>
    <path id="패스_42466" data-name="패스 42466" d="M39.976,22.664c1.348-1.349,1.5-2.377.885-2.992s-1.63-.45-2.978.9-1.525,2.4-.922,3,1.679.427,3.015-.909" transform="translate(-20813.514 -8718.15)" fill="#ff4747"/>
    <path id="패스_42467" data-name="패스 42467" d="M40.349,0H0L100,100.314V59.652Zm11.8,24.4c1.219,1.219,1.053,3.041-.7,4.789s-3.6,1.94-4.812.72-1.017-3.05.732-4.8,3.559-1.927,4.776-.71M30.362,20.655a5.1,5.1,0,0,1-1.644-4.034l1.537-.212a3.981,3.981,0,0,0,1.1,3.016c.981.983,2.188,1.123,3.039.271.935-.935.922-2.151-1.041-4.115l1-1c1.716,1.716,2.909,1.655,3.725.839a1.671,1.671,0,0,0-.118-2.552,3.46,3.46,0,0,0-2.565-.912l.141-1.56a5.124,5.124,0,0,1,3.559,1.43c1.561,1.561,1.856,3.464.46,4.859a2.881,2.881,0,0,1-3.475.472l-.059.06a3.072,3.072,0,0,1-.332,3.926c-1.524,1.525-3.735,1.111-5.331-.485m9.86,9.553-5.617-5.617L35.4,23.8c4.8.049,7.78,0,9.105-1.324a1.948,1.948,0,0,0,.058-3.015,3.341,3.341,0,0,0-2.683-.746l-.012-1.524a4.831,4.831,0,0,1,3.949,1.349,3.441,3.441,0,0,1,.072,5.177c-1.549,1.55-4.519,1.7-8.219,1.787a19.78,19.78,0,0,1,1.5,1.335l2.212,2.212ZM43.4,33.7l13.786-4.257.864.864L44.266,34.56Zm10.7,5.191c-1.751,1.751-3.582,1.927-4.789.722s-1.041-3.051.71-4.8,3.571-1.914,4.789-.7,1.041,3.027-.71,4.777m3.96,9.469a6.128,6.128,0,0,1-1.82-4.375l1.749-.141a4.762,4.762,0,0,0,1.289,3.346c1.053,1.052,2.14,1.147,2.873.414.792-.792.449-1.631,0-2.791l-.687-1.726a3.542,3.542,0,0,1,.509-4.056c1.37-1.371,3.607-1.192,5.262.463a5.265,5.265,0,0,1,1.536,3.735l-1.6.153a3.914,3.914,0,0,0-1.134-2.7c-.886-.886-1.891-1.039-2.578-.354-.758.756-.342,1.738.082,2.731l.686,1.7c.592,1.466.7,2.849-.578,4.126-1.4,1.4-3.69,1.372-5.594-.533m9.613,9.306,1.751-3.217L66.4,51.419l-3.227,1.739-1.4-1.394,11.6-5.829,1.586,1.585-5.829,11.6Zm7.662,7.661-5.061-5.06,8.713-8.713,1.372,1.37-7.555,7.555L76.5,64.165Zm14.234-.875L85.8,60.677,83.378,63.1l3.192,3.194-1.159,1.159-3.192-3.191-2.813,2.813,3.9,3.9L82.15,72.135l-5.275-5.274,8.713-8.713,5.142,5.144Z" transform="translate(-20824 -8723.685)" fill="#ff4747"/>
    <path id="패스_42468" data-name="패스 42468" d="M54.232,39.22l-1.525.815,2.377,2.377.828-1.513c.65-1.241,1.36-2.472,2.081-3.713l-.06-.06c-1.241.746-2.471,1.432-3.7,2.094" transform="translate(-20808.914 -8713.058)" fill="#ff4747"/>
    <path id="패스_42469" data-name="패스 42469" d="M29.635,14.9l.059-.06a2.885,2.885,0,0,0,3.477-.472c1.394-1.4,1.1-3.3-.462-4.859a5.117,5.117,0,0,0-3.558-1.432l-.141,1.56a3.469,3.469,0,0,1,2.565.912,1.674,1.674,0,0,1,.118,2.553c-.817.815-2.01.876-3.725-.84l-1.006,1c1.963,1.965,1.976,3.181,1.041,4.116-.851.851-2.057.71-3.038-.271a3.977,3.977,0,0,1-1.1-3.016l-1.537.212a5.109,5.109,0,0,0,1.644,4.034c1.6,1.6,3.807,2.009,5.333.485a3.073,3.073,0,0,0,.331-3.926" transform="translate(-20817.611 -8721.372)" fill="#fff"/>
    <path id="패스_42470" data-name="패스 42470" d="M29.967,21.679c3.7-.082,6.67-.237,8.219-1.787a3.441,3.441,0,0,0-.072-5.177,4.831,4.831,0,0,0-3.949-1.349l.012,1.525a3.336,3.336,0,0,1,2.683.746,1.946,1.946,0,0,1-.058,3.014c-1.325,1.325-4.3,1.372-9.105,1.325l-.792.791,5.617,5.617,1.159-1.158-2.212-2.212a20.063,20.063,0,0,0-1.5-1.335" transform="translate(-20816.299 -8719.861)" fill="#fff"/>
    <path id="패스_42471" data-name="패스 42471" d="M39.224,27.393c-1.752,1.751-1.928,3.582-.71,4.8s3.037,1.03,4.787-.722,1.916-3.571.71-4.776-3.038-1.053-4.787.7m3.086,3.084c-1.338,1.338-2.4,1.527-3,.925s-.415-1.668.922-3,2.364-1.514,2.979-.9.449,1.631-.9,2.978" transform="translate(-20813.199 -8716.27)" fill="#fff"/>
    <path id="패스_42472" data-name="패스 42472" d="M47.529,22.888,33.743,27.145l.864.862,13.786-4.255Z" transform="translate(-20814.342 -8717.134)" fill="#fff"/>
    <path id="패스_42473" data-name="패스 42473" d="M36.435,24.655c1.217,1.218,3.063,1.03,4.812-.722s1.915-3.569.7-4.787-3.025-1.041-4.775.71-1.951,3.582-.733,4.8m1.726-3.806c1.348-1.349,2.376-1.5,2.978-.9s.463,1.643-.885,2.992-2.4,1.525-3.015.909-.414-1.666.922-3" transform="translate(-20813.791 -8718.429)" fill="#fff"/>
    <path id="패스_42474" data-name="패스 42474" d="M51.718,36.282l-.686-1.7c-.424-.994-.84-1.974-.082-2.731.688-.686,1.691-.533,2.578.354a3.914,3.914,0,0,1,1.134,2.7l1.6-.153a5.267,5.267,0,0,0-1.536-3.737c-1.655-1.655-3.891-1.833-5.262-.462a3.539,3.539,0,0,0-.508,4.054l.686,1.727c.449,1.159.792,2,0,2.791-.733.732-1.82.638-2.873-.414a4.765,4.765,0,0,1-1.289-3.347l-1.749.143a6.13,6.13,0,0,0,1.82,4.375c1.9,1.9,4.2,1.928,5.594.533,1.277-1.277,1.169-2.66.578-4.126" transform="translate(-20811.484 -8715.203)" fill="#fff"/>
    <path id="패스_42475" data-name="패스 42475" d="M59.626,35.712l-11.6,5.829,1.4,1.394L52.652,41.2l3.027,3.028-1.751,3.217,1.455,1.453,5.828-11.6ZM57.251,41.3l-.828,1.514L54.047,40.44l1.524-.815c1.23-.661,2.459-1.348,3.7-2.094l.06.06c-.72,1.241-1.432,2.472-2.081,3.713" transform="translate(-20810.252 -8713.462)" fill="#fff"/>
    <path id="패스_42476" data-name="패스 42476" d="M64.723,41.448l-1.371-1.37-8.714,8.713,5.061,5.06,1.158-1.159L57.168,49Z" transform="translate(-20808.359 -8712.213)" fill="#fff"/>
    <path id="패스_42477" data-name="패스 42477" d="M59.767,53.921l5.275,5.274L66.2,58.035l-3.9-3.9,2.813-2.813L68.3,54.512l1.159-1.159L66.27,50.16l2.423-2.423,3.771,3.773,1.158-1.158L68.48,45.208Z" transform="translate(-20806.893 -8710.744)" fill="#fff"/>
  </g>
</svg>
