<svg xmlns="http://www.w3.org/2000/svg" width="100.001" height="100.313" viewBox="0 0 100.001 100.313">
  <g id="_40sale" data-name="40sale" transform="translate(20824 8617.66)">
    <path id="패스_42478" data-name="패스 42478" d="M39.976,128.688c1.348-1.349,1.5-2.377.885-2.992s-1.63-.45-2.978.9-1.525,2.4-.922,3,1.679.427,3.015-.909" transform="translate(-20813.514 -8718.151)" fill="#ff4747"/>
    <path id="패스_42479" data-name="패스 42479" d="M39.952,134.143c-1.338,1.336-1.538,2.389-.922,3s1.666.413,3-.925,1.5-2.374.9-2.978-1.631-.449-2.979.9" transform="translate(-20812.924 -8715.991)" fill="#ff4747"/>
    <path id="패스_42480" data-name="패스 42480" d="M36.573,121.591c-.886-.886-2.365-.661-4.8,1.774s-2.72,3.974-1.833,4.861,2.423.6,4.859-1.834,2.66-3.914,1.774-4.8" transform="translate(-20815.563 -8719.365)" fill="#ff4747"/>
    <path id="패스_42481" data-name="패스 42481" d="M40.349,106.025H0L100,206.338V165.676Zm11.8,24.4c1.219,1.219,1.053,3.041-.7,4.789s-3.6,1.94-4.812.72-1.017-3.05.732-4.8,3.559-1.927,4.776-.71M34.878,126.4l-2.247,2.247-1.276-1.279,2.246-2.246-3.773-3.77.911-.912,8.775-1.844,1.583,1.585-5.167,5.167,1.1,1.1L35.977,127.5ZM37.3,133.62c-1.726-1.726-1.241-4.387,1.608-7.236s5.451-3.275,7.177-1.549,1.29,4.338-1.549,7.177-5.5,3.346-7.236,1.608m6.1,6.1,13.786-4.257.864.864-13.786,4.256Zm10.7,5.191c-1.751,1.751-3.582,1.927-4.789.722s-1.041-3.051.71-4.8,3.571-1.914,4.789-.7,1.041,3.027-.71,4.777m3.96,9.469a6.128,6.128,0,0,1-1.82-4.375l1.749-.141a4.762,4.762,0,0,0,1.289,3.346c1.053,1.052,2.14,1.147,2.873.414.792-.792.449-1.631,0-2.791l-.687-1.726a3.542,3.542,0,0,1,.509-4.056c1.37-1.371,3.607-1.192,5.262.463a5.265,5.265,0,0,1,1.536,3.735l-1.6.153a3.914,3.914,0,0,0-1.134-2.7c-.886-.886-1.891-1.039-2.578-.354-.758.756-.342,1.738.082,2.731l.686,1.7c.592,1.466.7,2.849-.578,4.126-1.4,1.4-3.69,1.372-5.594-.533m9.613,9.306,1.751-3.217L66.4,157.442l-3.227,1.739-1.4-1.394,11.6-5.829,1.586,1.585-5.829,11.6Zm7.662,7.661-5.061-5.06,8.713-8.713,1.372,1.37L72.808,166.5l3.689,3.689Zm14.234-.875L85.8,166.7l-2.423,2.423,3.192,3.194-1.159,1.159-3.192-3.191L79.406,173.1l3.9,3.9-1.158,1.159-5.275-5.274,8.713-8.713,5.142,5.144Z" transform="translate(-20824 -8723.685)" fill="#ff4747"/>
    <path id="패스_42482" data-name="패스 42482" d="M54.232,145.244l-1.525.815,2.377,2.377.828-1.513c.65-1.241,1.36-2.472,2.081-3.713l-.06-.06c-1.241.746-2.471,1.432-3.7,2.094" transform="translate(-20808.912 -8713.059)" fill="#ff4747"/>
    <path id="패스_42483" data-name="패스 42483" d="M31.378,117.121l-.048-.048c-.638.214-1.276.379-1.963.567l-4.292.864,2.4,2.4,2.14-2.14c.473-.472,1.266-1.192,1.762-1.643" transform="translate(-20816.822 -8720.521)" fill="#ff4747"/>
    <path id="패스_42484" data-name="패스 42484" d="M29.292,122.546l5.167-5.167L32.875,115.8,24.1,117.639l-.911.912,3.773,3.77-2.246,2.246,1.276,1.279,2.246-2.246,1.1,1.1,1.052-1.052Zm-1.277-1.277-2.4-2.4,4.292-.864c.686-.189,1.325-.355,1.963-.569l.048.049c-.5.449-1.289,1.17-1.762,1.643Z" transform="translate(-20817.361 -8720.889)" fill="#fff"/>
    <path id="패스_42485" data-name="패스 42485" d="M38.008,120.876c-1.727-1.726-4.328-1.3-7.177,1.549s-3.335,5.51-1.608,7.236,4.387,1.241,7.236-1.608,3.286-5.44,1.549-7.177m-7.708,7.71c-.888-.886-.6-2.425,1.832-4.861s3.914-2.661,4.8-1.774.662,2.367-1.774,4.8-3.973,2.72-4.858,1.834" transform="translate(-20815.922 -8719.726)" fill="#fff"/>
    <path id="패스_42486" data-name="패스 42486" d="M39.224,133.418c-1.752,1.751-1.928,3.582-.71,4.8s3.037,1.03,4.787-.722,1.916-3.571.71-4.776-3.038-1.053-4.787.7M42.31,136.5c-1.338,1.338-2.4,1.527-3,.925s-.415-1.668.922-3,2.364-1.514,2.979-.9.449,1.631-.9,2.978" transform="translate(-20813.199 -8716.269)" fill="#fff"/>
    <path id="패스_42487" data-name="패스 42487" d="M47.529,128.912,33.743,133.17l.864.862,13.786-4.255Z" transform="translate(-20814.342 -8717.134)" fill="#fff"/>
    <path id="패스_42488" data-name="패스 42488" d="M36.435,130.679c1.217,1.218,3.063,1.03,4.812-.722s1.915-3.569.7-4.787-3.025-1.041-4.775.71-1.951,3.582-.733,4.8m1.726-3.806c1.348-1.349,2.376-1.5,2.978-.9s.463,1.643-.885,2.992-2.4,1.525-3.015.909-.414-1.666.922-3" transform="translate(-20813.791 -8718.429)" fill="#fff"/>
    <path id="패스_42489" data-name="패스 42489" d="M51.718,142.306l-.686-1.7c-.424-.994-.84-1.974-.082-2.731.688-.686,1.691-.533,2.578.354a3.914,3.914,0,0,1,1.134,2.7l1.6-.153a5.267,5.267,0,0,0-1.536-3.737c-1.655-1.655-3.891-1.833-5.262-.462a3.539,3.539,0,0,0-.508,4.054l.686,1.727c.449,1.159.792,2,0,2.791-.733.732-1.82.638-2.873-.414a4.765,4.765,0,0,1-1.289-3.347l-1.749.143a6.13,6.13,0,0,0,1.82,4.375c1.9,1.9,4.2,1.928,5.594.533,1.277-1.277,1.169-2.66.578-4.126" transform="translate(-20811.482 -8715.203)" fill="#fff"/>
    <path id="패스_42490" data-name="패스 42490" d="M59.626,141.736l-11.6,5.829,1.4,1.394,3.228-1.739,3.027,3.028-1.751,3.217,1.455,1.453,5.828-11.6Zm-2.376,5.593-.828,1.514-2.376-2.378,1.524-.815c1.23-.661,2.459-1.348,3.7-2.094l.06.06c-.72,1.241-1.432,2.472-2.081,3.713" transform="translate(-20810.252 -8713.463)" fill="#fff"/>
    <path id="패스_42491" data-name="패스 42491" d="M64.723,147.473l-1.371-1.37-8.714,8.713,5.061,5.06,1.158-1.159-3.689-3.689Z" transform="translate(-20808.361 -8712.213)" fill="#fff"/>
    <path id="패스_42492" data-name="패스 42492" d="M59.767,159.945l5.275,5.274L66.2,164.06l-3.9-3.9,2.813-2.813,3.192,3.191,1.159-1.159-3.192-3.194,2.423-2.423,3.771,3.773,1.158-1.158-5.142-5.144Z" transform="translate(-20806.893 -8710.745)" fill="#fff"/>
  </g>
</svg>
