<svg xmlns="http://www.w3.org/2000/svg" width="50.531" height="68.501" viewBox="0 0 50.531 68.501">
  <g id="icon2" transform="translate(20361.575 5827.315)">
    <rect id="사각형_8303" data-name="사각형 8303" width="17.969" height="2.113" transform="translate(-20339.211 -5806.101)" fill="#f67640" stroke="#f67640" stroke-width="0.5"/>
    <path id="패스_42459" data-name="패스 42459" d="M85.346,91.087l-4.9-8.489,1.83-1.057,3.072,5.32,3.072-5.32,1.83,1.057Z" transform="translate(-20433.541 -5891.022)" fill="#f67640" stroke="#f67640" stroke-width="0.5"/>
    <rect id="사각형_8304" data-name="사각형 8304" width="17.969" height="2.113" transform="translate(-20339.211 -5791.126)" fill="#f67640" stroke="#f67640" stroke-width="0.5"/>
    <path id="패스_42460" data-name="패스 42460" d="M85.346,126.519l-4.9-8.49,1.83-1.057,3.072,5.32,3.072-5.32,1.83,1.057Z" transform="translate(-20433.541 -5911.48)" fill="#f67640" stroke="#f67640" stroke-width="0.5"/>
    <rect id="사각형_8305" data-name="사각형 8305" width="17.969" height="2.113" transform="translate(-20339.211 -5776.151)" fill="#f67640" stroke="#f67640" stroke-width="0.5"/>
    <path id="패스_42461" data-name="패스 42461" d="M85.346,161.952l-4.9-8.49,1.83-1.057,3.072,5.32,3.072-5.32,1.83,1.057Z" transform="translate(-20433.541 -5931.939)" fill="#f67640" stroke="#f67640" stroke-width="0.5"/>
    <rect id="사각형_8306" data-name="사각형 8306" width="10.998" height="2.157" transform="translate(-20353.789 -5810.196)" fill="#fff"/>
    <rect id="사각형_8307" data-name="사각형 8307" width="10.998" height="2.157" transform="translate(-20353.789 -5795.222)" fill="#fff"/>
    <rect id="사각형_8308" data-name="사각형 8308" width="10.998" height="2.157" transform="translate(-20353.789 -5780.247)" fill="#fff"/>
    <path id="패스_42462" data-name="패스 42462" d="M115.391,51.033H89.319v-11.1h26.072ZM91.432,48.92h21.846V42.048H91.432Z" transform="translate(-20438.664 -5867)" fill="#f67640" stroke="#f67640" stroke-width="0.5"/>
    <path id="패스_42463" data-name="패스 42463" d="M111,114.074H60.971V50.566H74.008v2.113H63.084V111.96H108.89V52.679H97.967V50.566H111Z" transform="translate(-20422.297 -5873.138)" fill="#f67640" stroke="#f67640" stroke-width="0.5"/>
  </g>
</svg>
