<svg xmlns="http://www.w3.org/2000/svg" width="53.585" height="68.599" viewBox="0 0 53.585 68.599">
  <g id="icon1" transform="translate(20608.354 5290.614)">
    <path id="패스_42322" data-name="패스 42322" d="M105.109,98.865H60.946V39.686h44.163ZM63.065,96.746H102.99V41.8H63.065Z" transform="translate(-20669 -5330)" fill="#f67640" stroke="#f67640" stroke-width="0.6"/>
    <path id="패스_42323" data-name="패스 42323" d="M125.926,119.681H81.763V109.8h2.119v7.762h39.925V62.621h-7.762V60.5h9.881Z" transform="translate(-20680.994 -5341.995)" fill="#f67640" stroke="#f67640" stroke-width="0.6"/>
    <path id="패스_42324" data-name="패스 42324" d="M102.709,108.16l-5.072-14.2-5.072,14.2L86.3,88.111l2.023-.632L92.7,101.485l4.938-13.827,4.938,13.827,4.377-14.006,2.022.632Z" transform="translate(-20683.609 -5357.54)" fill="#f67640"/>
    <rect id="사각형_8294" data-name="사각형 8294" width="24.025" height="2.119" transform="translate(-20597.984 -5261.785)" fill="#f67640"/>
    <path id="패스_42325" data-name="패스 42325" d="M108.732,85.887H84.707v2h10.01v2h4v-2h10.01Z" transform="translate(-20682.691 -5356.622)" fill="#fff"/>
    <rect id="사각형_8295" data-name="사각형 8295" width="16.017" height="4.004" transform="translate(-20593.98 -5252.717)" fill="#fff"/>
  </g>
</svg>
